HIERARCHY
ROOT Hips
{
	OFFSET 0.00000 0.00000 0.00000
	CHANNELS 6 Xposition Yposition Zposition Zrotation Yrotation Xrotation 
	JOINT LHipJoint
	{
		OFFSET 0 0 0
		CHANNELS 3 Zrotation Yrotation Xrotation
		JOINT LeftUpLeg
		{
			OFFSET 1.40252 -1.71424 0.59123
			CHANNELS 3 Zrotation Yrotation Xrotation
			JOINT LeftLeg
			{
				OFFSET 2.50071 -6.87065 0.00000
				CHANNELS 3 Zrotation Yrotation Xrotation
				JOINT LeftFoot
				{
					OFFSET 2.50834 -6.89162 0.00000
					CHANNELS 3 Zrotation Yrotation Xrotation
					JOINT LeftToeBase
					{
						OFFSET 0.21528 -0.59149 1.64448
						CHANNELS 3 Zrotation Yrotation Xrotation
						End Site
						{
							OFFSET 0.00000 -0.00000 0.87921
						}
					}
				}
			}
		}
	}
	JOINT RHipJoint
	{
		OFFSET 0 0 0
		CHANNELS 3 Zrotation Yrotation Xrotation
		JOINT RightUpLeg
		{
			OFFSET -1.53651 -1.71424 0.59123
			CHANNELS 3 Zrotation Yrotation Xrotation
			JOINT RightLeg
			{
				OFFSET -2.45783 -6.75285 0.00000
				CHANNELS 3 Zrotation Yrotation Xrotation
				JOINT RightFoot
				{
					OFFSET -2.51921 -6.92147 0.00000
					CHANNELS 3 Zrotation Yrotation Xrotation
					JOINT RightToeBase
					{
						OFFSET -0.21777 -0.59831 1.59676
						CHANNELS 3 Zrotation Yrotation Xrotation
						End Site
						{
							OFFSET -0.00000 -0.00000 0.85779
						}
					}
				}
			}
		}
	}
	JOINT LowerBack
	{
		OFFSET 0 0 0
		CHANNELS 3 Zrotation Yrotation Xrotation
		JOINT Spine
		{
			OFFSET 0.02212 2.07622 0.03776
			CHANNELS 3 Zrotation Yrotation Xrotation
			JOINT Spine1
			{
				OFFSET -0.00949 2.08009 -0.00123
				CHANNELS 3 Zrotation Yrotation Xrotation
				JOINT Neck
				{
					OFFSET 0 0 0
					CHANNELS 3 Zrotation Yrotation Xrotation
					JOINT Neck1
					{
						OFFSET 0.00288 1.67184 0.11155
						CHANNELS 3 Zrotation Yrotation Xrotation
						JOINT Head
						{
							OFFSET -0.02412 1.66997 -0.22040
							CHANNELS 3 Zrotation Yrotation Xrotation
							End Site
							{
								OFFSET -0.01026 1.69043 -0.08683
							}
						}
					}
				}
				JOINT LeftShoulder
				{
					OFFSET 0 0 0
					CHANNELS 3 Zrotation Yrotation Xrotation
					JOINT LeftArm
					{
						OFFSET 3.97941 0.74048 0.81462
						CHANNELS 3 Zrotation Yrotation Xrotation
						JOINT LeftForeArm
						{
							OFFSET 5.01834 -0.00000 -0.00000
							CHANNELS 3 Zrotation Yrotation Xrotation
							JOINT LeftHand
							{
								OFFSET 3.48690 -0.00000 0.00000
								CHANNELS 3 Zrotation Yrotation Xrotation
								JOINT LeftFingerBase
								{
									OFFSET 0 0 0
									CHANNELS 3 Zrotation Yrotation Xrotation
									JOINT LeftHandIndex1
									{
										OFFSET 0.76799 -0.00000 0.00000
										CHANNELS 3 Zrotation Yrotation Xrotation
										End Site
										{
											OFFSET 0.61917 -0.00000 0.00000
										}
									}
								}
								JOINT LThumb
								{
									OFFSET 0 0 0
									CHANNELS 3 Zrotation Yrotation Xrotation
									End Site
									{
										OFFSET 0.62863 -0.00000 0.62863
									}
								}
							}
						}
					}
				}
				JOINT RightShoulder
				{
					OFFSET 0 0 0
					CHANNELS 3 Zrotation Yrotation Xrotation
					JOINT RightArm
					{
						OFFSET -3.88702 1.02123 0.44091
						CHANNELS 3 Zrotation Yrotation Xrotation
						JOINT RightForeArm
						{
							OFFSET -4.70164 -0.00000 0.00000
							CHANNELS 3 Zrotation Yrotation Xrotation
							JOINT RightHand
							{
								OFFSET -3.49911 -0.00000 0.00000
								CHANNELS 3 Zrotation Yrotation Xrotation
								JOINT RightFingerBase
								{
									OFFSET 0 0 0
									CHANNELS 3 Zrotation Yrotation Xrotation
									JOINT RightHandIndex1
									{
										OFFSET -0.73933 -0.00000 0.00000
										CHANNELS 3 Zrotation Yrotation Xrotation
										End Site
										{
											OFFSET -0.59607 -0.00000 0.00000
										}
									}
								}
								JOINT RThumb
								{
									OFFSET 0 0 0
									CHANNELS 3 Zrotation Yrotation Xrotation
									End Site
									{
										OFFSET -0.60517 -0.00000 0.60517
									}
								}
							}
						}
					}
				}
			}
		}
	}
}
MOTION
Frames: 11
Frame Time: .0083333
6.7707 17.1250 -10.3076 -533.0120 186.6020 -167.5660 0.0000 0.0000 0.0000 -25.5263 -6.8851 -11.8543 2.8109 10.3824 30.2242 1.1650 -7.6176 -19.2898 0.7005 -5.3496 -14.9086 0.0000 0.0000 0.0000 11.3153 1.5613 -46.9284 -10.3276 -17.5900 60.5777 0.0357 -12.1863 -16.8549 -0.5607 -4.7963 13.3286 2.0422 1.7944 -2.7058 0.0970 2.3517 -2.0205 -0.9899 1.1568 -0.4776 -4.2446 -5.1007 -6.3607 -3.5674 -5.9767 11.9699 -0.7638 -3.3331 4.6624 0.0000 0.0000 0.0000 -86.0372 14.5566 64.4288 103.9922 -59.2471 -72.0870 -0.0000 0.0000 -18.1058 21.3370 52.2768 17.1699 -7.1250 0.0000 -0.0000 -59.9449 79.2281 -50.0664 0.0000 0.0000 0.0000 82.1957 18.7796 0.6289 -69.6230 58.3714 -42.4495 0.0000 -0.0000 -28.5560 9.7231 -2.0182 -0.3457 7.1250 -0.0000 -0.0000 28.1299 -30.9973 10.8270
6.8845 17.1397 -10.2176 -534.6990 187.3200 -167.2500 0.0000 0.0000 0.0000 -24.2621 -6.1402 -11.3972 2.6568 10.1176 29.3585 1.1978 -7.4503 -19.5555 0.6178 -5.0303 -13.9951 0.0000 0.0000 0.0000 15.3012 -1.0217 -48.0603 -9.4334 -17.0787 57.5773 0.2883 -15.8156 -19.2680 -0.3096 -3.5769 9.8894 3.9288 1.7109 -3.3701 0.6662 2.1655 -1.9353 -1.4424 1.0569 0.0193 -4.7168 -5.3926 -6.0188 -3.4804 -6.3609 11.7058 -0.6711 -3.5299 4.5449 -0.0000 -0.0000 0.0000 -86.3463 13.8801 64.6307 104.2718 -59.2162 -72.3272 -0.0000 0.0000 -18.0773 20.6225 51.9905 16.5156 -7.1250 0.0000 -0.0000 -58.8110 78.8336 -48.6528 -0.0000 -0.0000 0.0000 80.2405 20.6801 0.1575 -65.1909 57.5416 -38.6920 0.0000 -0.0000 -28.1381 10.1231 -2.3440 -0.4184 7.1250 -0.0000 -0.0000 28.5061 -31.2632 10.7996
6.9823 17.1517 -10.1219 -536.1800 188.1740 -166.7570 0.0000 0.0000 0.0000 -23.1048 -5.2361 -11.3556 2.5541 9.9356 28.7685 1.2120 -7.6554 -19.6769 0.4941 -4.5069 -12.5073 0.0000 0.0000 0.0000 19.1573 -3.4258 -49.1795 -8.4081 -16.4113 54.0195 0.4676 -17.9583 -20.8416 -0.4472 -4.2904 11.8951 5.6113 1.8074 -4.3045 1.0434 2.1691 -1.7856 -1.9604 1.0671 0.7390 -4.9669 -5.7813 -5.8789 -3.3099 -6.8958 11.5023 -0.6036 -3.7885 4.4773 -0.0000 -0.0000 0.0000 -86.2833 12.9777 65.0830 104.4185 -59.1997 -72.4532 -0.0000 0.0000 -18.1220 20.0177 51.8581 15.9887 -7.1250 0.0000 -0.0000 -58.4520 78.5359 -48.0388 -0.0000 -0.0000 0.0000 78.6772 22.4288 -0.5782 -60.8028 56.5201 -35.0099 0.0000 -0.0000 -28.5846 10.7918 -2.2711 -0.4328 7.1250 -0.0000 -0.0000 28.9561 -31.1543 11.1056
7.0614 17.1515 -10.0212 -537.3430 189.2030 -166.1020 0.0000 0.0000 0.0000 -22.2248 -4.3219 -11.6187 2.4945 9.8280 28.4214 1.2225 -7.8571 -19.7691 0.4551 -4.3279 -12.0009 0.0000 0.0000 0.0000 23.1011 -6.1268 -50.4303 -7.3905 -15.6521 50.3361 0.5456 -19.1876 -22.1750 -0.7888 -5.6696 15.8288 6.7526 1.9894 -5.4456 1.3561 2.2537 -1.6600 -2.2280 1.1304 1.5409 -5.1153 -6.1259 -5.8680 -3.2421 -7.3652 11.0236 -0.6501 -4.0075 4.8153 -0.0000 -0.0000 0.0000 -86.2588 12.1457 65.4644 104.4477 -59.1964 -72.4783 -0.0000 0.0000 -18.1054 19.7770 51.8644 15.7920 -7.1250 0.0000 -0.0000 -58.5937 78.4391 -48.0714 -0.0000 -0.0000 0.0000 77.2383 24.0037 -1.4403 -56.8565 55.4124 -31.7390 0.0000 -0.0000 -28.9174 12.4869 -2.1113 -0.4674 7.1250 -0.0000 -0.0000 30.0880 -30.8953 11.8920
7.1315 17.1403 -9.9299 -537.9270 190.6350 -165.6680 0.0000 0.0000 0.0000 -22.0751 -3.0856 -12.0015 2.4804 9.8022 28.3386 1.2353 -7.8628 -19.8723 0.5636 -4.8082 -13.3624 0.0000 0.0000 0.0000 26.3383 -8.2864 -51.4773 -6.5493 -14.9403 47.1482 0.3835 -19.6847 -24.6227 -1.6401 -8.0723 22.9338 7.1396 2.2513 -6.0439 1.5140 2.5198 -1.6499 -2.2368 1.2734 1.9176 -5.3313 -6.4214 -5.7005 -3.1485 -7.7674 10.9292 -0.5982 -4.2067 4.7661 -0.0000 -0.0000 0.0000 -86.3532 11.6473 65.7406 104.3754 -59.2046 -72.4162 -0.0000 0.0000 -17.7042 19.2357 51.9192 15.3582 -7.1250 0.0000 -0.0000 -59.0990 78.2369 -48.3265 -0.0000 -0.0000 0.0000 76.0306 25.1429 -1.9773 -53.7769 54.4097 -29.2188 0.0000 -0.0000 -29.7682 13.0497 -2.1658 -0.5019 7.1250 -0.0000 -0.0000 30.4912 -30.9027 12.0957
7.2116 17.1246 -9.8455 -537.7000 191.5610 -165.7720 0.0000 0.0000 0.0000 -22.8492 -2.3303 -12.1172 2.5384 9.9073 28.6772 1.2374 -7.8569 -19.8895 0.7104 -5.3866 -15.0146 0.0000 0.0000 0.0000 28.5965 -10.9392 -52.3625 -5.8549 -14.2862 44.3966 0.7581 -21.7173 -24.6327 -1.1888 -6.9190 19.4757 6.9094 2.2476 -6.0206 1.5539 2.5299 -1.6543 -2.0679 1.2767 1.8898 -5.7991 -6.6696 -5.5682 -2.9714 -8.0846 10.9462 -0.4760 -4.3728 4.7844 0.0000 0.0000 0.0000 -86.6177 11.4166 65.9626 104.4701 -59.1939 -72.4976 -0.0000 0.0000 -17.1982 18.8070 51.9060 15.0040 -7.1250 0.0000 -0.0000 -59.2407 78.0570 -48.2759 0.0000 0.0000 0.0000 74.8717 26.0759 -2.4152 -51.1459 53.4473 -27.0920 0.0000 -0.0000 -29.7877 13.6041 -1.8449 -0.4464 7.1250 -0.0000 -0.0000 30.7712 -30.5775 12.5300
7.2798 17.1019 -9.7528 -537.3060 192.6430 -166.0850 0.0000 0.0000 0.0000 -23.8089 -1.4927 -12.0745 2.6097 10.0348 29.0894 1.2156 -7.9094 -19.7154 0.7094 -5.3828 -15.0037 0.0000 0.0000 0.0000 29.7859 -12.6513 -52.4921 -5.4341 -13.8566 42.6659 0.6796 -22.4986 -26.7243 -1.7108 -8.2359 23.4328 6.1565 2.2507 -5.8618 1.8030 2.5848 -1.5978 -1.3935 1.3010 1.8216 -6.4807 -6.8887 -5.4971 -3.0459 -8.3043 11.3271 -0.3599 -4.5240 4.4521 -0.0000 -0.0000 0.0000 -87.2874 11.3256 66.1313 104.7661 -59.1599 -72.7517 -0.0000 0.0000 -16.8630 18.8817 51.8163 15.0475 -7.1250 0.0000 -0.0000 -58.8021 78.0545 -47.8802 -0.0000 -0.0000 0.0000 73.5212 27.0271 -2.8424 -49.0735 52.6149 -25.4361 0.0000 -0.0000 -29.3109 13.9224 -2.0164 -0.4997 7.1250 -0.0000 -0.0000 31.0398 -30.7050 12.5623
7.3442 17.0794 -9.6604 -537.1200 193.7650 -166.3030 0.0000 0.0000 0.0000 -24.5088 -0.7344 -12.2465 2.7244 10.2349 29.7410 1.1817 -7.7704 -19.4333 0.6783 -5.2659 -14.6687 0.0000 0.0000 0.0000 29.6326 -12.6626 -51.5164 -5.1768 -13.5802 41.5812 0.3629 -22.0200 -28.4764 -2.0903 -9.0517 25.9571 6.1475 2.3986 -5.6935 1.6865 2.7948 -1.5321 -1.4966 1.4067 1.8160 -6.5712 -7.1361 -5.5220 -3.0602 -8.6292 11.2332 -0.3694 -4.6861 4.4362 -0.0000 -0.0000 0.0000 -87.2294 11.2342 66.3931 105.3951 -59.0852 -73.2916 -0.0000 0.0000 -16.6599 19.1231 51.7179 15.2256 -7.1250 0.0000 -0.0000 -58.2407 78.1164 -47.4387 -0.0000 -0.0000 0.0000 72.9561 28.0951 -3.5905 -47.3885 51.8864 -24.1037 0.0000 -0.0000 -28.4192 14.3589 -2.2036 -0.5639 7.1250 -0.0000 -0.0000 31.3933 -30.8363 12.6356
7.4078 17.0596 -9.5676 -536.9320 194.8860 -166.4710 0.0000 0.0000 0.0000 -25.2410 -0.1581 -12.5594 2.8783 10.4953 30.5961 1.1482 -7.2402 -19.1398 0.7130 -5.3964 -15.0428 0.0000 0.0000 0.0000 28.8233 -11.9134 -50.3391 -5.0510 -13.4410 41.0427 0.5419 -22.4060 -27.6963 -1.3429 -7.3370 20.7177 6.2645 2.6133 -5.5092 1.5046 3.0895 -1.4749 -1.7315 1.5550 1.8096 -6.5576 -7.3966 -5.5941 -3.0396 -8.9831 11.0826 -0.3862 -4.8550 4.4076 0.0000 -0.0000 0.0000 -87.1362 11.2014 66.6572 106.0599 -59.0027 -73.8617 -0.0000 0.0000 -16.5279 19.2501 51.5867 15.3032 -7.1250 0.0000 -0.0000 -57.5867 78.1183 -46.8565 0.0000 -0.0000 0.0000 72.4831 29.2185 -4.6363 -45.8559 51.1810 -22.9037 0.0000 -0.0000 -27.5387 15.0761 -2.1134 -0.5692 7.1250 -0.0000 -0.0000 31.8465 -30.6994 13.0101
7.4687 17.0407 -9.4671 -536.5980 196.1350 -166.7730 0.0000 0.0000 0.0000 -26.1925 0.3442 -12.7191 3.0468 10.7704 31.5094 1.1026 -6.6502 -18.7476 0.6811 -5.2767 -14.6995 0.0000 0.0000 0.0000 26.9967 -10.5499 -48.5686 -4.9780 -13.3590 40.7275 0.4143 -21.4193 -27.1335 -0.9362 -6.1633 17.2589 5.9923 2.8271 -5.1683 1.5172 3.4146 -1.4497 -1.5581 1.7130 1.6544 -6.6603 -7.6157 -5.7036 -3.3157 -9.2389 10.6523 -0.5213 -4.9877 4.7570 -0.0000 0.0000 0.0000 -87.5198 11.4233 66.7667 106.5989 -58.9329 -74.3236 -0.0000 0.0000 -16.4573 19.0588 51.4234 15.1141 -7.1250 0.0000 -0.0000 -56.9642 77.9756 -46.1638 -0.0000 0.0000 0.0000 71.6211 30.3709 -5.9611 -44.2435 50.3924 -21.6543 0.0000 -0.0000 -26.8165 16.4281 -1.9266 -0.5679 7.1250 -0.0000 -0.0000 32.6813 -30.4213 13.7493
7.5245 17.0258 -9.3601 -536.5500 197.1520 -166.9880 0.0000 0.0000 0.0000 -26.7038 0.8378 -13.0827 3.2938 11.1561 32.8083 1.0265 -6.5018 -18.0807 0.5334 -4.6797 -12.9972 0.0000 0.0000 0.0000 25.7289 -9.6012 -46.9725 -4.8682 -13.2338 40.2502 0.2921 -20.3904 -26.5314 -0.6520 -5.1651 14.3800 6.5533 3.0353 -4.8436 1.2415 3.6946 -1.4578 -2.1479 1.8508 1.5373 -6.3873 -7.7717 -5.5583 -3.4038 -9.4892 10.3749 -0.5942 -5.0972 4.6062 0.0000 0.0000 0.0000 -87.2320 11.7416 66.7883 107.2137 -58.8502 -74.8499 -0.0000 0.0000 -16.5645 18.6323 51.1814 14.7188 -7.1250 0.0000 -0.0000 -56.1579 77.7029 -45.1859 0.0000 0.0000 0.0000 71.2751 31.6785 -7.5867 -42.4824 49.4738 -20.3065 0.0000 -0.0000 -26.4064 18.0461 -1.9773 -0.6441 7.1250 -0.0000 -0.0000 33.7459 -30.3184 14.4882
